# xmcd
#
# Track frame offsets:
#	150
#	15327
#	28367
#	49070
#	62742
#	82062
#	106810
#	122192
#	142432
#	163857
#	180690
#	203985
#	221532
#	236282
#	253812
#	273885
#	288585
#	300635
#	313130
#	332657
#
# Disc length: 4616
#
# Revision: 2
# Processed by: cddbd v1.5.1PL0 Copyright (c) Steve Scherf et al.
# Submitted via: audiograbber 1.82.02
# Normalized: r1:DSETVAR1
#
DISCID=32120614
DTITLE=Various Artist - Rhythm and Soul Best Of Disk 2
DYEAR=1900
DGENRE=
TTITLE0=Edwin Starr - War
TTITLE1=Jackie Wilson - (Your Love Keeps Lifting Me) Higher and Higher
TTITLE2=Elvin Bishop - Fooled Around and Fell In Love
TTITLE3=Jnr Walker and The All Stars - How Sweet It Is (To Be Loved By You)
TTITLE4=Sade - Smooth Operator
TTITLE5=Stylistics - You Make Me Feel Brand New
TTITLE6=Harold Melvin and The Blue Notes - If You Don't Know Me By Now
TTITLE7=Esther Phillips - What A Difference A Day Makes
TTITLE8=The Chimes - Love Comes To Mind
TTITLE9=Roachford - Cuddly Toy
TTITLE10=Philip Bailey - Walking On The Chinese Wall
TTITLE11=Pointer Sisters - Slow Hand
TTITLE12=Isaac Hayes - Theme From Shaft
TTITLE13=Curtis Mayfield - Superfly
TTITLE14=Manhattans - Kiss And Say Goodbye
TTITLE15=Aretha Franklin - Try A Little Tenderness
TTITLE16=Aaron Neville - Tell It Like It Is
TTITLE17=Sam Cooke - You Send Me
TTITLE18=Jasper Isley - Caravan Of Love
TTITLE19=Jimmy Ruffin - What Becomes Of The Broken Hearted?
EXTD=
EXTT0=
EXTT1=
EXTT2=
EXTT3=
EXTT4=
EXTT5=
EXTT6=
EXTT7=
EXTT8=
EXTT9=
EXTT10=
EXTT11=
EXTT12=
EXTT13=
EXTT14=
EXTT15=
EXTT16=
EXTT17=
EXTT18=
EXTT19=
PLAYORDER=
